<svg xmlns="http://www.w3.org/2000/svg" viewBox="0 0 260 200"><defs><style>.cls-1{fill:#f77d04;}.cls-2{fill:#adadad;}.cls-3{fill:#e25029;}.cls-4{fill:#f9c23a;}.cls-11,.cls-12,.cls-13,.cls-14,.cls-4{fill-rule:evenodd;}.cls-13,.cls-15,.cls-5{fill:#fff;}.cls-5{stroke:#0e0e0e;stroke-miterlimit:10;}.cls-6{fill:#c262c4;}.cls-7{fill:#aa2626;}.cls-8{fill:#40c1a8;}.cls-9{fill:#8adb7d;}.cls-10,.cls-14{fill:#e23e35;}.cls-11{fill:#3cb0dc;}.cls-12{fill:#fcfcfc;}</style></defs><title>icons</title><g id="icono_d3" data-name="icono d3"><path class="cls-1" d="M239.3,160H235a17.52,17.52,0,1,1-17.52-17.52,17.32,17.32,0,0,1,9.11,2.56.71.71,0,0,1,.21,1l-2.48,3.69a.68.68,0,0,1-.94.2A11.68,11.68,0,1,0,229.19,160h-4.26a.7.7,0,0,1-.51-1.17l3.57-4,3.61-4a.7.7,0,0,1,1,0l7.19,7.94A.7.7,0,0,1,239.3,160Z"/></g><g id="icono_c3" data-name="icono c3"><path class="cls-2" d="M172.19,176.45l-12.05-8.61,7.79-7.79,8.61,12C182.51,180.47,180.56,182.42,172.19,176.45Z"/><path class="cls-3" d="M175.72,152.26,159,169l-5.51,5.51-1.14,1.14-1.69-1.69a3.11,3.11,0,0,1,0-4.41l.59-.59a1.55,1.55,0,0,0,0-2.2l-9-9a7.8,7.8,0,0,1,0-11l4.56-4.56a7.8,7.8,0,0,1,11,0l9,9a1.55,1.55,0,0,0,2.2,0l.59-.59a3.11,3.11,0,0,1,4.41,0Z"/></g><g id="icono_b3" data-name="icono b3"><path class="cls-4" d="M104.62,175.38a4.62,4.62,0,0,1-9.24,0,4.33,4.33,0,0,1,.28-1.53h8.68A4.33,4.33,0,0,1,104.62,175.38Z"/><path class="cls-4" d="M118.46,167.08v1.23a2.47,2.47,0,0,1-2.46,2.46H84a2.47,2.47,0,0,1-2.46-2.46v-1.23A2.46,2.46,0,0,1,84,164.62h2.46a1.24,1.24,0,0,0,1.23-1.24V152.31A12.35,12.35,0,0,1,100,140h0a12.35,12.35,0,0,1,12.31,12.31v11.07a1.24,1.24,0,0,0,1.23,1.24H116A2.46,2.46,0,0,1,118.46,167.08Z"/></g><g id="icono_a3" data-name="icono a3"><rect class="cls-5" x="20" y="148.57" width="40" height="22.87" rx="2"/><path class="cls-5" d="M59.55,149.5,42,158.26a4.6,4.6,0,0,1-4.09,0L20.44,149.5"/></g><g id="icono_d2" data-name="icono d2"><rect class="cls-6" x="200" y="114.29" width="40" height="5.71" rx="2.29"/><path class="cls-6" d="M231.24,100.19l-9.62,9.62a2.3,2.3,0,0,1-3.24,0l-9.62-9.62a2.29,2.29,0,0,1,0-3.23l1.05-1.06a2.29,2.29,0,0,1,3.23,0l4.1,4.1V82.29A2.3,2.3,0,0,1,219.43,80h1.14a2.3,2.3,0,0,1,2.29,2.29V100l4.1-4.1a2.29,2.29,0,0,1,3.23,0L231.24,97A2.29,2.29,0,0,1,231.24,100.19Z"/></g><g id="icono_c2" data-name="icono c2"><path class="cls-7" d="M174.39,100.61l-.51.51a1.48,1.48,0,0,1-1.95.09,18.28,18.28,0,0,0-5.05-3.09l2.76-2.76a22,22,0,0,1,4.65,3.09A1.44,1.44,0,0,1,174.39,100.61Z"/><path class="cls-7" d="M168,87l-3,3a24.42,24.42,0,0,0-5-.51A25.44,25.44,0,0,0,143,96a1.46,1.46,0,0,1-2,0l-.54-.54a1.45,1.45,0,0,1,0-2.09A29.17,29.17,0,0,1,168,87Z"/><path class="cls-7" d="M179.57,95.43,179,96a1.46,1.46,0,0,1-2,0,25.38,25.38,0,0,0-4.69-3.33L175,90a29.28,29.28,0,0,1,4.52,3.36A1.45,1.45,0,0,1,179.57,95.43Z"/><circle class="cls-7" cx="160" cy="111.35" r="3.65"/><path class="cls-7" d="M174.29,86.79a1,1,0,0,1,0,1.42l-.88.88-.91.91-24.29,24.29a1,1,0,0,1-1.42,0l-1.08-1.08a1,1,0,0,1,0-1.42L147.5,110l3.75-3.74,5.46-5.47,7.3-7.3,3-3,2.89-2.89,1.86-1.86a1,1,0,0,1,1.42,0Z"/><path class="cls-7" d="M161.81,93.19l-3.68,3.68a18.05,18.05,0,0,0-10.07,4.34,1.49,1.49,0,0,1-2-.09l-.51-.51a1.46,1.46,0,0,1,.1-2.16A21.8,21.8,0,0,1,160,93.12C160.61,93.12,161.22,93.15,161.81,93.19Z"/><path class="cls-7" d="M169.21,105.78l-.51.52a1.5,1.5,0,0,1-1.93.12,10.85,10.85,0,0,0-5.87-2.32L164,101a14.66,14.66,0,0,1,5.07,2.62A1.44,1.44,0,0,1,169.21,105.78Z"/></g><g id="icono_b2" data-name="icono b2"><path class="cls-8" d="M109.21,105.78l-.51.52a1.5,1.5,0,0,1-1.93.12,10.92,10.92,0,0,0-13.56,0,1.49,1.49,0,0,1-1.92-.12l-.52-.52a1.43,1.43,0,0,1,.12-2.18,14.57,14.57,0,0,1,18.2,0A1.44,1.44,0,0,1,109.21,105.78Z"/><path class="cls-8" d="M114.39,100.61l-.51.51a1.48,1.48,0,0,1-1.95.09,18.26,18.26,0,0,0-23.87,0,1.49,1.49,0,0,1-2-.09l-.51-.51a1.46,1.46,0,0,1,.1-2.16,21.85,21.85,0,0,1,28.6,0A1.44,1.44,0,0,1,114.39,100.61Z"/><path class="cls-8" d="M119.57,95.43,119,96a1.46,1.46,0,0,1-2,0A25.5,25.5,0,0,0,83,96a1.46,1.46,0,0,1-2,0l-.54-.54a1.45,1.45,0,0,1,0-2.09,29.18,29.18,0,0,1,39.08,0A1.45,1.45,0,0,1,119.57,95.43Z"/><circle class="cls-8" cx="100" cy="111.35" r="3.65"/></g><g id="icono_a2" data-name="icono a2"><path class="cls-5" d="M60,105.49a5.16,5.16,0,0,1-5.2,4.51H24.09a4,4,0,0,1-3.93-3.24A9.29,9.29,0,0,1,20,105a10,10,0,0,1,7.85-9.77,7.5,7.5,0,0,1,13.33-2A10,10,0,0,1,54.68,100a1.67,1.67,0,0,1,.32,0A5,5,0,0,1,60,105.49Z"/></g><g id="icono_d1" data-name="icono d1"><path class="cls-9" d="M239.5,28.77l-26.6,26.6a1.67,1.67,0,0,1-2.34,0L200.5,45.3a1.64,1.64,0,0,1,0-2.33l1.79-1.8a1.65,1.65,0,0,1,2.34,0l7.1,7.1,23.64-23.64a1.67,1.67,0,0,1,2.34,0l1.79,1.8A1.65,1.65,0,0,1,239.5,28.77Z"/></g><g id="icono_c1" data-name="icono c1"><path class="cls-10" d="M164.59,40l15,15a1.3,1.3,0,0,1,0,1.84l-2.75,2.75a1.3,1.3,0,0,1-1.84,0l-15-15-15,15a1.3,1.3,0,0,1-1.84,0l-2.75-2.75a1.3,1.3,0,0,1,0-1.84l15-15-15-15a1.3,1.3,0,0,1,0-1.84l2.75-2.75a1.3,1.3,0,0,1,1.84,0l15,15,15-15a1.3,1.3,0,0,1,1.84,0l2.75,2.75a1.3,1.3,0,0,1,0,1.84Z"/></g><g id="icono_b1" data-name="icono b1"><path class="cls-11" d="M119.37,35a19.79,19.79,0,0,0-.83-2.5,19.58,19.58,0,0,0-2.94-5,19.85,19.85,0,0,0-13.11-7.34,19.46,19.46,0,0,0-5,0A19.85,19.85,0,0,0,84.4,27.5a19.58,19.58,0,0,0-2.94,5,19.79,19.79,0,0,0-.83,2.5,20.16,20.16,0,0,0,0,10,20.07,20.07,0,0,0,3.76,7.49A17.6,17.6,0,0,0,86.77,55a19.84,19.84,0,0,0,10.74,4.85,19.46,19.46,0,0,0,5,0A19.84,19.84,0,0,0,113.23,55a17.6,17.6,0,0,0,2.38-2.5A20.07,20.07,0,0,0,119.37,45a20.16,20.16,0,0,0,0-10ZM97.51,29.25a1.78,1.78,0,0,1,1.41-1.66.59.59,0,0,1,.19-.05,1.75,1.75,0,0,1,.4,0h1a1.75,1.75,0,0,1,.4,0,.59.59,0,0,1,.19.05,1.78,1.78,0,0,1,1.41,1.66v14a1.89,1.89,0,0,1-2,1.75h-1a1.89,1.89,0,0,1-2-1.75ZM100,52.49a2.46,2.46,0,0,1-2.15-1.25A2.41,2.41,0,0,1,97.51,50a2.49,2.49,0,0,1,5,0,2.41,2.41,0,0,1-.34,1.25A2.46,2.46,0,0,1,100,52.49Z"/><path class="cls-12" d="M102.49,50a2.41,2.41,0,0,1-.34,1.25,2.47,2.47,0,0,1-4.3,0A2.41,2.41,0,0,1,97.51,50a2.49,2.49,0,0,1,5,0Z"/><path class="cls-13" d="M102.49,29.25v14a1.89,1.89,0,0,1-2,1.75h-1a1.89,1.89,0,0,1-2-1.75v-14a1.78,1.78,0,0,1,1.41-1.66.59.59,0,0,1,.19-.05,1.75,1.75,0,0,1,.4,0h1a1.75,1.75,0,0,1,.4,0,.59.59,0,0,1,.19.05A1.78,1.78,0,0,1,102.49,29.25Z"/></g><g id="icono_a1" data-name="icono a1"><path class="cls-14" d="M56,60H24.05c-3.43,0-5-2.49-3.45-5.53L36.55,22.82c1.9-3.76,5-3.76,6.9,0l16,31.64C60.94,57.5,59.39,60,56,60Z"/><circle class="cls-15" cx="40.01" cy="52.49" r="2.5"/><rect class="cls-15" x="37.5" y="32.51" width="5.01" height="15" rx="2"/></g></svg>